HIERARCHY
ROOT Hips
{
	OFFSET 0.000000 0.000000 0.000000
	CHANNELS 6 Xposition Yposition Zposition Xrotation Yrotation Zrotation
	JOINT LeftUpLeg_virtual
	{
		OFFSET 0.000000 0.000000 0.000000
		CHANNELS 3 Xrotation Yrotation Zrotation
		JOINT LeftUpLeg
		{
			OFFSET 10.205400 -3.823500 0.155100
			CHANNELS 3 Xrotation Yrotation Zrotation
			JOINT LeftLeg
			{
				OFFSET 0.708757 -12.982077 0.567790
				CHANNELS 3 Xrotation Yrotation Zrotation
				JOINT LeftFoot
				{
					OFFSET -0.708756 -10.717838 -2.184338
					CHANNELS 3 Xrotation Yrotation Zrotation
					JOINT LeftToeBase
					{
						OFFSET 0.108149 -7.191104 7.560241
						CHANNELS 3 Xrotation Yrotation Zrotation
						JOINT LeftToe_End
						{
							OFFSET 0.070230 0.081724 4.490308
							CHANNELS 3 Xrotation Yrotation Zrotation
							End Site
							{
								OFFSET 0 0 0
							}
						}
					}
				}
			}
		}
	}
	JOINT RightUpLeg_virtual
	{
		OFFSET 0.000000 0.000000 0.000000
		CHANNELS 3 Xrotation Yrotation Zrotation
		JOINT RightUpLeg
		{
			OFFSET -10.205400 -3.823500 0.005500
			CHANNELS 3 Xrotation Yrotation Zrotation
			JOINT RightLeg
			{
				OFFSET -0.708756 -12.982134 0.610632
				CHANNELS 3 Xrotation Yrotation Zrotation
				JOINT RightFoot
				{
					OFFSET 0.708754 -10.717769 -1.945823
					CHANNELS 3 Xrotation Yrotation Zrotation
					JOINT RightToeBase
					{
						OFFSET -0.108140 -7.191069 7.372968
						CHANNELS 3 Xrotation Yrotation Zrotation
						JOINT RightToe_End
						{
							OFFSET -0.070227 0.081735 4.479403
							CHANNELS 3 Xrotation Yrotation Zrotation
							End Site
							{
								OFFSET 0 0 0
							}
						}
					}
				}
			}
		}
	}
	JOINT Spine_virtual
	{
		OFFSET 0.000000 0.000000 0.000000
		CHANNELS 3 Xrotation Yrotation Zrotation
		JOINT Spine
		{
			OFFSET 0.000000 6.876099 0.125700
			CHANNELS 3 Xrotation Yrotation Zrotation
			JOINT Spine1
			{
				OFFSET 0.000000 5.730043 0.104720
				CHANNELS 3 Xrotation Yrotation Zrotation
				JOINT Spine1_split
				{
					OFFSET 0.000000 5.730043 0.104720
					CHANNELS 3 Xrotation Yrotation Zrotation
					JOINT Spine2
					{
						OFFSET 0.000000 5.730043 0.104720
						CHANNELS 3 Xrotation Yrotation Zrotation
						JOINT Neck_virtual
						{
							OFFSET 0.000000 0.000000 0.000000
							CHANNELS 3 Xrotation Yrotation Zrotation
							JOINT Neck
							{
								OFFSET 0.000000 10.314075 0.188496
								CHANNELS 3 Xrotation Yrotation Zrotation
								JOINT Head
								{
									OFFSET 0.000000 7.643700 -2.377400
									CHANNELS 3 Xrotation Yrotation Zrotation
									JOINT HeadTop_End
									{
										OFFSET 0.000000 43.788605 -13.619600
										CHANNELS 3 Xrotation Yrotation Zrotation
										End Site
										{
											OFFSET 0 0 0
										}
									}
								}
							}
						}
						JOINT LeftShoulder_virtual
						{
							OFFSET 0.000000 0.000000 0.000000
							CHANNELS 3 Xrotation Yrotation Zrotation
							JOINT LeftShoulder
							{
								OFFSET 2.196100 4.412489 0.087492
								CHANNELS 3 Xrotation Yrotation Zrotation
								JOINT LeftShoulder_split
								{
									OFFSET 2.196100 4.412489 0.087492
									CHANNELS 3 Xrotation Yrotation Zrotation
									JOINT LeftArm
									{
										OFFSET 8.771219 -2.981674 -0.026999
										CHANNELS 3 Xrotation Yrotation Zrotation
										JOINT LeftForeArm
										{
											OFFSET 8.512804 0.000000 -0.000000
											CHANNELS 3 Xrotation Yrotation Zrotation
											JOINT LeftHand
											{
												OFFSET 18.484802 0.000000 -0.000000
												CHANNELS 3 Xrotation Yrotation Zrotation
												End Site
												{
													OFFSET 0 0 0
												}
											}
										}
									}
								}
							}
						}
						JOINT RightShoulder_virtual
						{
							OFFSET 0.000000 0.000000 0.000000
							CHANNELS 3 Xrotation Yrotation Zrotation
							JOINT RightShoulder
							{
								OFFSET -2.196100 4.412496 0.070690
								CHANNELS 3 Xrotation Yrotation Zrotation
								JOINT RightShoulder_split
								{
									OFFSET -2.196100 4.412496 0.070690
									CHANNELS 3 Xrotation Yrotation Zrotation
									JOINT RightArm
									{
										OFFSET -8.771282 -2.981682 -0.094208
										CHANNELS 3 Xrotation Yrotation Zrotation
										JOINT RightForeArm
										{
											OFFSET -8.494598 0.000000 0.000000
											CHANNELS 3 Xrotation Yrotation Zrotation
											JOINT RightHand
											{
												OFFSET -18.483803 0.000000 0.000001
												CHANNELS 3 Xrotation Yrotation Zrotation
												End Site
												{
													OFFSET 0 0 0
												}
											}
										}
									}
								}
							}
						}
					}
				}
			}
		}
	}
}
MOTION
Frames: 5
Frame Time: 0.03333333
-0.229453 33.201252 0.818048 0.000000 0.000000 0.000000 -38.469094 -82.510980 -36.934753 -11.394760 15.944641 9.131584 28.226018 -1.206238 1.818998 -10.547541 2.623097 -9.783148 -4.792736 -0.143072 -0.470884 0.000000 0.000000 0.000000 -27.153820 -81.661346 -26.622196 -2.845873 -24.114560 -4.242601 21.846724 11.938725 -10.735407 -12.131652 -2.848859 11.068171 1.529535 -0.860256 -0.227396 0.000000 0.000000 0.000000 -38.229713 -81.051738 -37.417624 3.314624 0.367981 1.570179 3.867855 0.236858 1.904295 0.642385 5.750832 -0.520151 0.000000 0.000000 0.000000 3.984369 -0.236453 1.525690 -6.398640 6.657057 -3.258035 5.392617 36.776197 -3.323646 0.000000 0.000000 0.000000 5.424739 0.300061 1.627109 0.715547 5.178564 0.344680 -1.077397 0.226574 -0.672439 8.887177 -80.192875 -54.268462 -2.058478 -23.852515 -0.301803 0.000000 0.000000 0.000000 6.501269 0.824645 1.155593 1.165668 3.374837 7.446865 2.912106 4.118735 -0.475875 13.637708 27.807286 59.476420 1.223045 30.976609 0.101979 0.000000 0.000000 0.000000 
-0.190618 33.200069 0.840927 0.000000 0.000000 0.000000 -39.494176 -82.488536 -37.902239 -11.050812 15.974921 9.120870 28.401564 -1.411231 1.911287 -11.000256 2.695813 -9.140301 -4.176922 -0.082903 -0.751101 0.000000 0.000000 0.000000 -27.278912 -81.449439 -26.724201 -2.879147 -24.027900 -4.223330 21.784648 11.804195 -10.646622 -11.767518 -2.970581 10.934014 1.519101 -0.925800 -0.146846 0.000000 0.000000 0.000000 -38.702082 -80.931369 -37.890553 3.384635 0.246885 1.632941 3.855623 0.211074 1.911402 0.874644 4.415681 -0.246283 0.000000 0.000000 0.000000 3.941403 -0.198619 1.552801 -6.564196 6.580688 -3.290506 5.349669 36.562231 -3.446895 0.000000 0.000000 0.000000 5.425638 0.286070 1.678057 0.675175 4.964573 0.270913 -1.041875 0.332486 -0.414498 11.212071 -80.276880 -52.116898 -2.329515 -24.159212 -0.652444 0.000000 0.000000 0.000000 6.525681 0.859090 1.253707 1.284164 3.155094 7.318519 2.963601 4.132880 -0.639173 13.822094 27.854413 59.248175 1.261920 31.717267 -0.065744 0.000000 0.000000 0.000000 
-0.127682 33.181015 0.818827 0.000000 0.000000 0.000000 -40.456430 -82.350962 -38.847254 -10.845203 16.198012 9.087909 28.599223 -1.778829 2.159727 -11.635465 2.643183 -8.905044 -3.188030 0.013377 -1.047966 0.000000 0.000000 0.000000 -28.461368 -81.130667 -27.844601 -2.768492 -23.897838 -4.176674 22.035397 11.801828 -10.575174 -11.507766 -2.976393 11.189084 1.294426 -1.056961 -0.232601 0.000000 0.000000 0.000000 -39.282832 -80.805031 -38.461297 3.589768 -0.005121 1.801876 3.835282 0.113668 1.911352 0.833221 3.393543 -0.096895 0.000000 0.000000 0.000000 3.988361 -0.244213 1.632537 -6.854511 6.618928 -3.450627 5.212823 36.610340 -3.648440 0.000000 0.000000 0.000000 5.516941 0.194666 1.748609 0.673750 4.823687 0.204683 -0.940689 0.887748 -0.535549 15.872999 -80.285985 -47.861642 -2.427786 -24.794468 -0.974564 0.000000 0.000000 0.000000 6.498901 0.777565 1.374495 1.423631 2.901568 7.074406 3.040102 4.406829 -0.632813 13.973123 27.712427 59.304484 1.280132 33.196051 -0.216561 0.000000 0.000000 0.000000 
-0.046499 33.145603 0.753675 0.000000 0.000000 0.000000 -41.075699 -82.153693 -39.446166 -10.730062 16.666872 8.965774 28.717547 -2.274933 2.523056 -12.226100 2.409854 -9.206477 -2.898004 0.084217 -0.965374 0.000000 0.000000 0.000000 -30.013719 -80.843328 -29.293578 -2.634767 -23.648601 -4.193255 22.473583 11.966147 -10.533333 -11.516901 -2.815920 11.710312 1.154820 -1.198118 -0.444162 0.000000 0.000000 0.000000 -39.916602 -80.731443 -39.026571 3.864190 -0.326659 1.978807 3.810466 0.022217 1.899218 0.769093 2.742886 -0.184925 0.000000 0.000000 0.000000 4.105984 -0.321507 1.728881 -7.151124 6.737512 -3.726040 4.962913 36.841337 -3.896525 0.000000 0.000000 0.000000 5.646363 0.093517 1.829275 0.696923 4.774868 0.158174 -0.852327 1.565348 -0.854796 21.642110 -80.229273 -42.570906 -2.299723 -25.324700 -1.193078 0.000000 0.000000 0.000000 6.432734 0.649010 1.482277 1.541191 2.721182 6.819578 3.188897 4.860121 -0.566698 13.943403 27.409054 59.623959 1.267088 34.819020 -0.331420 0.000000 0.000000 0.000000 
0.045240 33.118378 0.672852 0.000000 0.000000 0.000000 -41.802745 -82.106032 -40.075411 -10.478624 17.321268 8.621693 28.650673 -2.712485 2.994486 -12.867009 2.092184 -9.598172 -3.615758 0.112615 -0.439562 0.000000 0.000000 0.000000 -31.261209 -80.754652 -30.385036 -2.408039 -23.243818 -4.231559 22.747812 12.238857 -10.564498 -11.961743 -2.568881 12.051933 1.343483 -1.297248 -0.705402 0.000000 0.000000 0.000000 -41.225598 -80.885422 -40.186757 4.124886 -0.635963 2.022466 3.793590 0.014898 1.880682 0.940871 2.510918 -0.329214 0.000000 0.000000 0.000000 4.265884 -0.347969 1.806621 -7.321306 6.930984 -4.017177 4.598587 37.249386 -4.198744 0.000000 0.000000 0.000000 5.756819 0.067108 1.897520 0.727578 4.787010 0.079852 -0.911315 1.929462 -1.253956 26.438431 -80.084952 -38.093242 -1.878009 -25.610737 -1.225038 0.000000 0.000000 0.000000 6.345784 0.557206 1.553510 1.619587 2.634993 6.720032 3.256425 5.345048 -0.556823 13.573405 26.938299 60.163496 1.223608 36.155053 -0.396341 0.000000 0.000000 0.000000 
